HIERARCHY
ROOT Hips
{
  OFFSET -187.679 86.5976 -156.378
  CHANNELS 6 Xposition Yposition Zposition Zrotation Xrotation Yrotation
  JOINT LeftUpLeg
  {
    OFFSET 8.64259 1.95398 -2.38835
    CHANNELS 3 Zrotation Xrotation Yrotation
    JOINT LeftLeg
    {
      OFFSET 43.7702 0 0
      CHANNELS 3 Zrotation Xrotation Yrotation
      JOINT LeftFoot
      {
        OFFSET 40.6238 0 0
        CHANNELS 3 Zrotation Xrotation Yrotation
        JOINT LeftToeBase
        {
          OFFSET 12.7242 0 0
          CHANNELS 3 Zrotation Xrotation Yrotation
          End Site
          {
            OFFSET 0 0 0
          }
        }
      }
    }
  }
  JOINT RightUpLeg
  {
    OFFSET -8.2249 1.95398 -2.59336
    CHANNELS 3 Zrotation Xrotation Yrotation
    JOINT RightLeg
    {
      OFFSET 43.5653 0 0
      CHANNELS 3 Zrotation Xrotation Yrotation
      JOINT RightFoot
      {
        OFFSET 40.6238 0 0
        CHANNELS 3 Zrotation Xrotation Yrotation
        JOINT RightToeBase
        {
          OFFSET 12.7242 0 0
          CHANNELS 3 Zrotation Xrotation Yrotation
          End Site
          {
            OFFSET 0 0 0
          }
        }
      }
    }
  }
  JOINT Spine
  {
    OFFSET 0.165834 0.87714 6.61349
    CHANNELS 3 Zrotation Xrotation Yrotation
    JOINT Spine1
    {
      OFFSET 7.38963 1.71661e-005 0
      CHANNELS 3 Zrotation Xrotation Yrotation
      JOINT Spine2
      {
        OFFSET 11.9445 1.14441e-005 0
        CHANNELS 3 Zrotation Xrotation Yrotation
        JOINT Spine3
        {
          OFFSET 14.7254 4.19617e-005 0
          CHANNELS 3 Zrotation Xrotation Yrotation
          JOINT Spine4
          {
            OFFSET 10.9679 0 0
            CHANNELS 3 Zrotation Xrotation Yrotation
            JOINT RightShoulder
            {
              OFFSET 2.46616 -1.6653 3.69651
              CHANNELS 3 Zrotation Xrotation Yrotation
              JOINT RightArm
              {
                OFFSET 13.0012 0 0
                CHANNELS 3 Zrotation Xrotation Yrotation
                JOINT RightForeArm
                {
                  OFFSET 28.7848 1.52588e-005 0
                  CHANNELS 3 Zrotation Xrotation Yrotation
                  JOINT RightHand
                  {
                    OFFSET 26.5688 1.52588e-005 0
                    CHANNELS 3 Zrotation Xrotation Yrotation
                    End Site
                    {
                      OFFSET 0 0 0
                    }
                  }
                }
              }
            }
            JOINT LeftShoulder
            {
              OFFSET 2.38034 -1.29275 -3.7523
              CHANNELS 3 Zrotation Xrotation Yrotation
              JOINT LeftArm
              {
                OFFSET 16.3182 6.10352e-005 0
                CHANNELS 3 Zrotation Xrotation Yrotation
                JOINT LeftForeArm
                {
                  OFFSET 27.0901 0 0
                  CHANNELS 3 Zrotation Xrotation Yrotation
                  JOINT LeftHand
                  {
                    OFFSET 24.5451 1.52588e-005 0
                    CHANNELS 3 Zrotation Xrotation Yrotation
                    End Site
                    {
                      OFFSET 0 0 0
                    }
                  }
                }
              }
            }
            JOINT Neck
            {
              OFFSET 5.0226 -0.0266342 0
              CHANNELS 3 Zrotation Xrotation Yrotation
              JOINT Head
              {
                OFFSET 6.69363 2.86102e-005 0
                CHANNELS 3 Zrotation Xrotation Yrotation
                End Site
                {
                  OFFSET 0 0 0
                }
              }
            }
          }
        }
      }
    }
  }
}
MOTION
Frames:	12
Frame Time:	0.0416667
-322.181 101.023 -296.007 102.544 -49.7662 98.4329 -174.56 -8.83357 89.0267 -10.6779 13.5608 8.17307 64.9079 2.67472 -1.37344 16.5189 0.178395 -11.427 172.925 -4.15516 87.4519 -15.7742 -5.50404 0.802951 61.9576 -0.340898 -5.47823 26.2423 -2.06216 5.35055 -0.119863 8.03445 -89.7976 10.7788 -0.145206 0.416537 -0.892165 -0.126745 0.422515 -23.427 -0.263696 0.353631 -3.41433 -0.263666 0.353642 85.5273 -50.1904 -107.35 24.6983 -29.6657 -14.1134 -20.9007 -25.7963 -25.1492 0.0564538 -0.0591558 -10.4326 -92.0955 -48.8739 75.5543 -21.9409 29.2615 -9.7964 5.93009 -15.0942 -17.1777 -6.10873 0.0373881 -7.99222 9.27031 -8.81579 -4.18767 8.10887 -7.50145 1.67061 
-322.264 100.996 -295.914 102.486 -50.2851 98.6995 -174.371 -8.50386 89.3546 -11.149 13.1138 8.05075 65.1736 2.74294 -1.21128 7.90596 1.65477 -19.2547 173.541 -4.07879 88.0964 -15.7643 -5.09088 0.382502 61.8678 -0.398255 -5.1235 26.1059 -2.07105 5.28898 -0.052799 8.03562 -89.8518 10.7966 -0.0366741 0.298258 -0.874335 -0.0235143 0.299574 -23.4093 -0.124622 0.273452 -3.39661 -0.124623 0.273449 85.7359 -49.8605 -107.138 24.9579 -30.8908 -14.4733 -20.0182 -27.8065 -24.1827 5.70277 -0.573616 -14.1753 -92.1769 -49.3039 75.542 -21.7032 29.147 -9.85183 5.7084 -15.9751 -17.2617 -6.12101 0.0892099 -10.065 9.48376 -8.66642 -3.62824 8.1306 -7.54195 0.892554 
-322.27 100.97 -295.869 102.597 -50.1598 98.8155 -174.336 -8.37311 89.4407 -11.6464 13.1631 8.0888 65.435 2.8027 -1.26781 21.5425 -0.335247 -5.95139 173.492 -4.40149 88.0924 -15.4555 -4.62856 0.469301 62.171 -0.611301 -4.74227 25.798 -2.12601 5.26168 -0.0648644 8.03757 -89.8952 10.7996 -0.0807489 0.215866 -0.871348 -0.0711857 0.219212 -23.4064 -0.141907 0.18162 -3.39376 -0.141901 0.181614 85.6456 -49.5498 -107.371 24.9049 -34.1354 -15.0231 -17.68 -32.2462 -22.4379 16.8835 -2.93205 -23.214 -92.4067 -50.0617 75.3933 -21.2314 29.0523 -9.76124 6.30994 -13.4195 -17.0298 -8.48633 0.122428 -7.98162 9.38028 -8.5073 -2.91706 8.50818 -7.58475 0.451155 
-322.273 100.89 -295.848 102.666 -50.1017 98.8339 -174.369 -8.31488 89.4212 -11.8545 13.1333 8.12797 65.5539 2.78711 -1.4507 23.8046 -2.9894 2.70497 173.573 -4.63558 88.1162 -15.2806 -3.75707 0.395756 62.7498 -0.940714 -4.00401 25.2596 -2.19755 5.13711 -0.0634122 8.03912 -89.9191 10.7957 -0.088851 0.169205 -0.875297 -0.0813159 0.172956 -23.4104 -0.135606 0.134675 -3.39777 -0.135597 0.134679 85.6011 -49.3276 -107.508 25.2728 -36.4748 -14.849 -16.5163 -35.5962 -22.1456 24.8441 -5.92436 -30.5451 -92.5456 -50.3198 75.2535 -21.1001 29.0749 -9.7655 6.46539 -12.8551 -17.1496 -8.47523 0.0799023 -7.31114 9.24698 -8.566 -2.97416 8.91081 -7.55216 1.22832 
-322.351 100.819 -295.869 102.259 -49.9145 98.5553 -174.361 -7.49646 89.5164 -13.017 13.3399 8.08868 66.2167 3.03476 -1.09992 22.9782 -2.95143 1.77481 173.686 -4.78188 88.2357 -14.6506 -2.43808 0.451699 63.2039 -1.34036 -3.0605 25.0025 -2.27345 5.20661 -0.0966863 8.01366 -89.9662 10.8466 -0.176949 0.0836746 -0.824296 -0.173101 0.0913723 -23.3595 -0.193923 0.026628 -3.34689 -0.193912 0.0266295 85.8717 -48.7945 -107.263 25.2646 -36.9392 -15.2202 -15.8923 -34.6446 -21.4755 24.7117 -5.78337 -30.1309 -92.718 -50.9508 75.1609 -20.7792 28.9011 -9.61783 6.38939 -12.9539 -17.2774 -8.42777 0.055777 -6.8817 9.61568 -8.40565 -1.86057 8.30095 -7.71177 0.455506 
-322.377 100.714 -295.834 102.259 -49.7874 98.3165 -174.289 -6.99526 89.4894 -13.9983 13.435 7.84117 66.5808 3.08284 -1.2585 23.1715 -3.04335 2.22127 173.269 -4.89832 87.7807 -14.6333 -1.36186 0.782885 64.2347 -1.95007 -1.81657 23.9013 -2.51008 5.228 -0.103311 8.02103 -89.9271 10.8319 -0.171986 0.161113 -0.839026 -0.164751 0.168529 -23.3742 -0.21247 0.101979 -3.36159 -0.212471 0.101976 85.6804 -48.9577 -107.504 24.8897 -32.3266 -15.0236 -18.1389 -27.7379 -22.2111 8.77142 -1.27126 -16.4089 -92.6024 -50.7117 75.2697 -20.9884 28.8944 -9.61301 6.61602 -12.3131 -17.188 -8.47412 0.0191812 -6.2042 9.36175 -8.40342 -2.33418 8.45433 -7.57801 0.801475 
-322.53 100.566 -295.731 102.159 -49.7659 98.3246 -174.175 -6.33591 89.7629 -15.1462 13.5768 7.77941 67.0646 3.18779 -1.27285 23.5905 -2.91654 2.35108 173.355 -5.14477 87.9256 -14.2498 0.264645 0.896632 65.0293 -2.51745 -0.329908 23.5403 -2.57953 5.21146 -0.0911958 8.04091 -89.9327 10.7921 -0.150564 0.147887 -0.878805 -0.143906 0.154368 -23.414 -0.188043 0.0958025 -3.40135 -0.18805 0.0957981 85.7562 -48.8095 -107.435 24.7188 -29.0821 -15.2725 -18.0111 -20.2555 -21.1272 -6.99227 0.195152 -5.8896 -92.3698 -50.185 75.4789 -21.4989 29.7723 -9.70954 6.35585 -13.1828 -17.725 -10.7113 0.187653 -7.90131 9.46601 -8.33914 -2.3081 8.5342 -7.54141 0.569442 
-322.713 100.468 -295.56 102.233 -49.7681 98.6359 -174.073 -5.91617 90.1231 -16.2318 13.5688 7.9151 67.8629 3.46643 -1.00809 22.9264 -3.10357 2.10053 173.489 -5.84261 88.2386 -13.25 2.3607 1.11357 65.6378 -3.11721 1.48107 22.5878 -2.88351 5.50304 -0.0644684 8.06272 -89.9695 10.7485 -0.114208 0.0712365 -0.922451 -0.110961 0.0761919 -23.4576 -0.130334 0.0336159 -3.445 -0.130326 0.0336225 85.5873 -48.9375 -107.652 24.5855 -30.5652 -15.0974 -16.1612 -18.2097 -18.8974 -2.33962 -0.000644403 -6.65778 -92.5717 -50.5041 75.2619 -20.8549 28.4892 -9.98959 7.01413 -11.9694 -16.3539 -5.68915 -0.00963207 -5.10401 10.5059 -8.16117 -1.33183 6.71251 -7.71875 -1.21233 
-322.84 100.294 -295.342 101.905 -49.726 98.0567 -174.299 -5.52313 89.8457 -16.7155 13.3012 8.0182 68.0316 3.43806 -1.10944 21.6676 -2.13826 -1.63528 173.579 -6.34085 88.1231 -12.2773 4.32999 0.982168 66.81 -3.77712 3.50355 21.4123 -2.96276 5.03 -0.0671845 8.02679 -89.9338 10.8204 -0.103126 0.141317 -0.85058 -0.0968313 0.145729 -23.3857 -0.140842 0.1038 -3.37309 -0.140828 0.103796 85.7392 -48.8171 -107.458 24.8965 -30.5748 -14.7217 -16.2113 -17.9841 -19.0532 -2.38327 -0.00502919 -6.30563 -92.8184 -50.7507 74.9623 -20.597 28.8907 -9.64621 6.40292 -13.1532 -17.3308 -7.4046 0.00477327 -6.27006 10.5691 -8.14414 -1.06768 5.94634 -7.78638 -1.56559 
-322.752 100.176 -294.977 102.306 -49.4568 98.3373 -174.259 -5.80605 89.9638 -17.1885 13.5256 8.20796 68.3528 3.50173 -1.22683 23.9258 -2.82035 2.45387 173.529 -7.98915 88.0867 -10.3479 6.80634 1.129 67.4593 -4.39355 5.80848 20.2555 -3.22635 5.08277 -0.0746678 8.05587 -89.9402 10.7622 -0.121034 0.130081 -0.908767 -0.115202 0.135271 -23.4439 -0.154548 0.0876924 -3.43128 -0.154552 0.0876782 85.9398 -48.5669 -107.23 25.1395 -30.6265 -14.8021 -15.8492 -17.7354 -18.5501 -2.72239 0.0121882 -7.08022 -92.8183 -50.8842 74.997 -20.5796 28.8071 -9.55358 6.55532 -12.6352 -17.4497 -7.00805 -0.0304823 -5.5917 10.3128 -7.96208 -0.667422 6.26765 -7.72928 -1.84027 
-323.008 100.031 -294.564 102.455 -49.5438 98.3936 -173.968 -5.58948 90.3754 -17.923 13.6019 8.00293 68.7921 3.57735 -1.38024 23.9554 -2.73537 2.27801 173.65 -8.9301 88.2195 -9.17913 9.39383 1.21518 68.4639 -5.09433 8.45762 18.7371 -3.46268 4.8568 -0.0334444 8.06552 -89.9391 10.7428 -0.0384565 0.124614 -0.92812 -0.032954 0.126178 -23.4632 -0.0741509 0.10729 -3.4506 -0.0741593 0.107288 85.9518 -48.7333 -107.159 25.1237 -30.3258 -14.6177 -16.2493 -18.4807 -18.9356 -2.36152 0.0112299 -7.35407 -92.9375 -51.0004 74.8522 -20.4999 28.4275 -9.78885 6.76329 -12.209 -17.0581 -6.32455 -0.0314031 -5.75762 10.2179 -8.01455 -0.663222 6.38863 -7.75756 -1.50509 
-323.085 99.8502 -294.178 102.422 -49.2466 98.402 -173.866 -5.25483 90.69 -18.9281 13.8982 8.08644 69.4176 3.76582 -1.34868 24.0892 -2.69053 2.29043 173.835 -9.59059 88.4837 -8.70638 12.5995 1.32976 70.0365 -5.83708 11.0893 17.8486 -3.65955 4.87558 -0.0729036 8.08418 -89.9377 10.7056 -0.116463 0.134483 -0.965399 -0.110432 0.139477 -23.5006 -0.15151 0.0932634 -3.48792 -0.151485 0.0932649 85.7626 -48.7968 -107.429 25.041 -30.32 -14.7994 -16.0935 -18.0299 -18.8973 -2.50246 0.0175258 -7.56111 -92.6689 -50.8587 75.2095 -20.4682 28.3768 -9.83552 6.75801 -12.2525 -17.4288 -6.59989 -0.0344136 -5.59913 10.6392 -7.74079 -0.276299 6.15309 -7.59879 -1.85565 
